<svg xmlns="http://www.w3.org/2000/svg" width="126" height="44" fill="none"><path fill="#E2061B" fill-rule="evenodd" d="M14.048 13.56a11.983 11.983 0 0 1 8.52-3.406 17.146 17.146 0 0 1 12.171 4.868 17.207 17.207 0 0 1 5.193 12.054 17.19 17.19 0 0 1-5.188 12.06 17.129 17.129 0 0 1-12.177 4.862A22.259 22.259 0 0 1 6.74 37.677 22.339 22.339 0 0 1 0 22 22.356 22.356 0 0 1 6.721 6.352 22.276 22.276 0 0 1 22.5 0a28.06 28.06 0 0 1 6.757.795l-1.554 4.857a23.457 23.457 0 0 0-5.152-.575 17.13 17.13 0 0 0-12.166 4.868A17.19 17.19 0 0 0 5.203 22a17.207 17.207 0 0 0 5.193 12.054 17.145 17.145 0 0 0 12.171 4.867c2.38.013 4.712-.675 6.706-1.977a12.179 12.179 0 0 0 4.51-5.35 10.83 10.83 0 0 0 .76-7.242h-.151a9.344 9.344 0 0 1-.355 1.573 12.18 12.18 0 0 1-4.484 5.763 12.147 12.147 0 0 1-6.969 2.157 11.998 11.998 0 0 1-8.525-3.404A12.042 12.042 0 0 1 10.422 22a12.025 12.025 0 0 1 3.626-8.44Zm4.818 13.978a6.748 6.748 0 0 0 3.701 1.23 6.851 6.851 0 0 0 4.869-1.946A6.876 6.876 0 0 0 29.51 22c0-1.331-.392-2.632-1.127-3.74a6.758 6.758 0 0 0-6.881-2.91 6.753 6.753 0 0 0-3.461 1.801 6.772 6.772 0 0 0-1.582 7.313 6.766 6.766 0 0 0 2.407 3.074Zm27.382-12.003a7.702 7.702 0 0 1 2.754-1.794 10.118 10.118 0 0 1 7.128 0 7.565 7.565 0 0 1 2.72 1.794 7.82 7.82 0 0 1 1.689 2.843c.434 1.204.646 2.477.625 3.756a10.59 10.59 0 0 1-.625 3.774 7.887 7.887 0 0 1-1.69 2.86 7.432 7.432 0 0 1-2.719 1.828 10.456 10.456 0 0 1-7.128 0 7.55 7.55 0 0 1-2.754-1.828 8.159 8.159 0 0 1-1.689-2.86 10.595 10.595 0 0 1-.625-3.774c-.02-1.28.191-2.552.625-3.756a8.091 8.091 0 0 1 1.69-2.843Zm1.977 6.633a7.32 7.32 0 0 0 1.064 4.316h-.034a3.735 3.735 0 0 0 3.277 1.489 3.727 3.727 0 0 0 3.243-1.473 7.524 7.524 0 0 0 1.048-4.332 7.558 7.558 0 0 0-1.048-4.332 3.717 3.717 0 0 0-3.243-1.489 3.727 3.727 0 0 0-3.243 1.49 7.457 7.457 0 0 0-1.064 4.331Zm18.767 8.614c-.2.13-.437.196-.676.186h-2.787V5.483h4.223v10.001a8.275 8.275 0 0 1 2.365-1.692 6.747 6.747 0 0 1 3.074-.66 5.836 5.836 0 0 1 2.618.592c.81.394 1.516.974 2.061 1.692a8.469 8.469 0 0 1 1.334 2.759c.321 1.249.475 2.535.457 3.824a12.018 12.018 0 0 1-.524 3.621 9.127 9.127 0 0 1-1.504 2.911 6.893 6.893 0 0 1-2.381 1.93 7.32 7.32 0 0 1-4.595.608 5.885 5.885 0 0 1-1.2-.457 6.201 6.201 0 0 1-1.03-.71 11.723 11.723 0 0 1-.895-.931l-.186 1.184c-.04.245-.165.467-.354.627Zm7.364-13.098a2.67 2.67 0 0 0-1.114-.981l-.068-.034a3.56 3.56 0 0 0-1.503-.305 4.301 4.301 0 0 0-2.247.558 6.46 6.46 0 0 0-1.639 1.591v7.869a4.19 4.19 0 0 0 1.572 1.235c.583.241 1.21.362 1.84.356a4.132 4.132 0 0 0 1.69-.356 3.515 3.515 0 0 0 1.3-1.1c.4-.558.68-1.191.828-1.861.216-.869.318-1.762.304-2.657.015-.881-.07-1.76-.253-2.623a5.081 5.081 0 0 0-.71-1.692Zm8.582-2.048a7.854 7.854 0 0 1 2.652-1.878l.067.085a8.702 8.702 0 0 1 3.53-.694 8.534 8.534 0 0 1 3.058.525 6.909 6.909 0 0 1 3.986 4.01 9.612 9.612 0 0 1 .558 3.384v.796c-.02.177-.072.348-.152.507a.726.726 0 0 1-.304.254 1.334 1.334 0 0 1-.49.085H85.015a6.047 6.047 0 0 0 1.453 3.976 4.524 4.524 0 0 0 3.378 1.27c.6.01 1.198-.07 1.774-.237a8.63 8.63 0 0 0 1.3-.542l.98-.524c.242-.156.524-.238.811-.237a.894.894 0 0 1 .76.389l1.233 1.54c-.457.533-.985 1-1.57 1.388a8.237 8.237 0 0 1-1.825.88 8.429 8.429 0 0 1-1.925.473c-.667.082-1.34.11-2.01.085a9.311 9.311 0 0 1-3.379-.61 7.619 7.619 0 0 1-2.737-1.793 8.36 8.36 0 0 1-1.925-2.894 11.287 11.287 0 0 1-.676-4.078 9.693 9.693 0 0 1 .591-3.384 8.191 8.191 0 0 1 1.69-2.775Zm9.138 1.727a3.38 3.38 0 0 0-1.165-.863l-.017-.051a4.049 4.049 0 0 0-1.69-.322 3.895 3.895 0 0 0-2.888 1.05 5.25 5.25 0 0 0-1.267 3.028h7.94c0-.528-.08-1.053-.237-1.556a3.47 3.47 0 0 0-.676-1.287Zm17.449 12.319a6.073 6.073 0 0 1-2.128 1.167h.101a7.604 7.604 0 0 1-2.466.39 4.618 4.618 0 0 1-3.513-1.287 5.077 5.077 0 0 1-1.402-3.52v-9.831h-1.69a.944.944 0 0 1-.59-.22.913.913 0 0 1-.237-.677v-1.692l2.821-.474.878-4.823a.882.882 0 0 1 .321-.541c.183-.127.402-.192.625-.186h2.179v5.55h4.628v3.012h-4.628v9.527c-.032.468.119.93.422 1.286a1.333 1.333 0 0 0 1.081.474c.224.008.448-.027.659-.101l.473-.203.338-.187a.59.59 0 0 1 .321-.101.472.472 0 0 1 .304.101.978.978 0 0 1 .253.271l1.25 2.065Zm15.203-12.573c.296.883.445 1.81.439 2.741v11.033h-1.925a2.024 2.024 0 0 1-.929-.169 1.216 1.216 0 0 1-.524-.745l-.372-1.252c-.414.386-.854.742-1.317 1.066a7.389 7.389 0 0 1-1.318.762 6.903 6.903 0 0 1-1.453.457 8.748 8.748 0 0 1-1.689.152 7.106 7.106 0 0 1-2.044-.288 4.353 4.353 0 0 1-1.689-.913 4.096 4.096 0 0 1-1.047-1.49 5.367 5.367 0 0 1-.372-2.081c.006-.692.18-1.371.507-1.98.42-.69 1-1.271 1.689-1.692a11.428 11.428 0 0 1 3.226-1.286 20.11 20.11 0 0 1 5.068-.525v-1.032a4 4 0 0 0-.743-2.64 2.704 2.704 0 0 0-2.162-.846 5.063 5.063 0 0 0-1.69.237c-.411.14-.807.321-1.182.541l-.929.542c-.29.157-.616.239-.946.237-.258 0-.511-.077-.726-.22a1.687 1.687 0 0 1-.49-.559l-.777-1.353a10.412 10.412 0 0 1 7.297-2.775 6.935 6.935 0 0 1 2.737.507 5.878 5.878 0 0 1 2.111 1.422c.563.62.989 1.352 1.25 2.149Zm-10.169 9.46c.062.485.288.932.642 1.268l.034-.05a2.732 2.732 0 0 0 1.689.49 4.928 4.928 0 0 0 3.159-1.049c.326-.257.637-.534.929-.83v-2.944a17.397 17.397 0 0 0-3.091.237 8.307 8.307 0 0 0-1.994.643 2.673 2.673 0 0 0-1.064.846 2.118 2.118 0 0 0-.304 1.39Z" clip-rule="evenodd"/></svg>